<svg id="Layer_1" enable-background="new 0 0 512 512" height="512" viewBox="0 0 512 512" width="512" xmlns="http://www.w3.org/2000/svg"><g><g><path d="m258.494 451.077c-4.268 0-7.727-3.46-7.727-7.727v-158.509c0-4.268 3.46-7.727 7.727-7.727s7.727 3.46 7.727 7.727v158.509c.001 4.268-3.459 7.727-7.727 7.727z" fill="#dfebfa"/></g><g><path d="m404.369 411.182h-60.674c-4.268 0-7.727-3.46-7.727-7.727v-118.614c0-4.268 3.46-7.727 7.727-7.727s7.727 3.46 7.727 7.727v110.886h52.947c4.268 0 7.727 3.46 7.727 7.727 0 4.268-3.46 7.728-7.727 7.728z" fill="#dfebfa"/></g><g><path d="m173.294 411.182h-60.674c-4.268 0-7.727-3.46-7.727-7.727 0-4.268 3.46-7.727 7.727-7.727h52.947v-110.887c0-4.268 3.46-7.727 7.727-7.727s7.727 3.46 7.727 7.727v118.613c.001 4.268-3.459 7.728-7.727 7.728z" fill="#dfebfa"/></g><g><path d="m466.281 335.956h-36.779c-4.268 0-7.727-3.46-7.727-7.727v-43.388c0-4.268 3.46-7.727 7.727-7.727 4.268 0 7.727 3.46 7.727 7.727v35.661h29.051c4.268 0 7.727 3.46 7.727 7.727s-3.458 7.727-7.726 7.727z" fill="#dfebfa"/></g><g><path d="m87.99 335.956h-36.779c-4.268 0-7.727-3.46-7.727-7.727s3.46-7.727 7.727-7.727h29.051v-35.661c0-4.268 3.46-7.727 7.727-7.727 4.268 0 7.727 3.46 7.727 7.727v43.388c.001 4.268-3.458 7.727-7.726 7.727z" fill="#dfebfa"/></g><path d="m511.983 189.749c-.995-51.995-44.49-93.257-96.488-91.376-7.616.273-14.792-3.862-18.446-10.55-22.605-41.376-66.519-69.441-116.989-69.441-51.757 0-96.596 29.528-118.647 72.648-6.423 12.56-19.224 10.9-24.689 10.9-40.126 0-74.199 25.852-86.512 61.804-2.046 5.973-6.938 10.463-12.894 12.556-22.39 7.87-38.251 29.605-37.276 54.902 1.163 30.174 26.849 53.631 57.045 53.631h359.817c52.291 0 96.08-42.793 95.079-95.074z" fill="#9dc6fb"/><path d="m118.252 231.193c-.975-25.298 14.885-47.033 37.276-54.902 5.956-2.094 10.848-6.584 12.894-12.556 12.313-35.952 46.385-61.804 86.512-61.804 5.465 0 18.265 1.66 24.688-10.9 13.005-25.43 33.94-46.125 59.541-58.832-17.812-8.834-37.873-13.816-59.103-13.816-51.757 0-96.596 29.528-118.647 72.648-6.423 12.56-19.224 10.9-24.689 10.9-40.126 0-74.199 25.852-86.512 61.804-2.046 5.973-6.938 10.463-12.894 12.556-22.39 7.87-38.251 29.605-37.276 54.902 1.163 30.174 26.849 53.63 57.045 53.63h118.21c-30.196 0-55.881-23.457-57.045-53.63z" fill="#80b4fb"/><g fill="#ffe181"><circle cx="258.494" cy="468.484" r="25.134"/><circle cx="424.301" cy="403.454" r="19.933"/><circle cx="92.688" cy="403.454" r="19.933"/><circle cx="482.684" cy="328.229" r="16.403"/><circle cx="34.808" cy="328.229" r="16.403"/></g><path d="m255.946 468.484c0-9.819 5.633-18.316 13.841-22.453-3.396-1.711-7.23-2.681-11.293-2.681-13.881 0-25.134 11.253-25.134 25.134s11.253 25.134 25.134 25.134c4.063 0 7.897-.97 11.293-2.681-8.208-4.137-13.841-12.634-13.841-22.453z" fill="#fec458"/><path d="m423.863 403.454c0-7.465 4.111-13.962 10.186-17.378-2.883-1.621-6.204-2.555-9.747-2.555-11.008 0-19.933 8.924-19.933 19.933s8.924 19.933 19.933 19.933c3.543 0 6.864-.934 9.747-2.555-6.076-3.415-10.186-9.912-10.186-17.378z" fill="#fec458"/><path d="m92.249 403.454c0-7.465 4.111-13.962 10.186-17.378-2.883-1.621-6.204-2.555-9.747-2.555-11.009 0-19.933 8.924-19.933 19.933 0 11.008 8.924 19.933 19.933 19.933 3.543 0 6.864-.934 9.747-2.555-6.075-3.415-10.186-9.912-10.186-17.378z" fill="#fec458"/><path d="m482.684 328.229c0-6.068 3.303-11.353 8.201-14.191-2.415-1.399-5.21-2.212-8.201-2.212-9.059 0-16.403 7.344-16.403 16.403s7.344 16.403 16.403 16.403c2.991 0 5.787-.814 8.201-2.212-4.897-2.837-8.201-8.123-8.201-14.191z" fill="#fec458"/><path d="m34.808 328.229c0-6.068 3.303-11.353 8.202-14.191-2.415-1.399-5.21-2.212-8.202-2.212-9.059 0-16.403 7.344-16.403 16.403s7.344 16.403 16.403 16.403c2.991 0 5.787-.814 8.202-2.212-4.899-2.837-8.202-8.123-8.202-14.191z" fill="#fec458"/></g></svg>