<svg height="464pt" viewBox="0 -4 464.00001 464" width="464pt" xmlns="http://www.w3.org/2000/svg"><path d="m120 319.863281c0 8.839844 7.164062 16 16 16s16-7.160156 16-16" fill="#00aeef"/><path d="m152 415.863281c0 8.839844-7.164062 16-16 16s-16-7.160156-16-16c0-8.835937 7.164062-16 16-16s16 7.164063 16 16zm0 0" fill="#00aeef"/><path d="m464 223.863281c-.011719 49.902344-38.269531 91.464844-88 95.601563l-288 .398437c-23.34375.015625-45.734375-9.253906-62.238281-25.757812-16.507813-16.507813-25.7734378-38.898438-25.761719-62.242188 0-39.679687 26.238281-65.199219 62.320312-76.238281-4.199218-11.453125-6.339843-23.5625-6.320312-35.761719.019531-25.675781 15.375-48.859375 39.007812-58.898437 23.632813-10.039063 50.976563-4.992188 69.472657 12.820312 16.320312-53.75 72.375-84.828125 126.605469-70.195312 54.234374 14.636718 87.046874 69.691406 74.113281 124.355468.960937-.082031 1.839843-.082031 2.800781-.082031 53.019531 0 96 42.980469 96 96zm0 0" fill="#00aeef"/><path d="m376 263.863281h-288v-80h288zm0 0" fill="#898890"/><path d="m152 223.863281c0 8.839844-7.164062 16-16 16s-16-7.160156-16-16c0-8.835937 7.164062-16 16-16s16 7.164063 16 16zm0 0" fill="#f1f2f2"/><path d="m376 359.863281h-288v-80h288zm0 0" fill="#898890"/><path d="m152 319.863281c0 8.839844-7.164062 16-16 16s-16-7.160156-16-16c0-8.835937 7.164062-16 16-16s16 7.164063 16 16zm0 0" fill="#f1f2f2"/><path d="m376 455.863281h-288v-80h288zm0 0" fill="#898890"/><g fill="#f1f2f2"><path d="m152 415.863281c0 8.839844-7.164062 16-16 16s-16-7.160156-16-16c0-8.835937 7.164062-16 16-16s16 7.164063 16 16zm0 0"/><path d="m336 199.863281h16v16h-16zm0 0"/><path d="m304 199.863281h16v16h-16zm0 0"/><path d="m272 199.863281h16v16h-16zm0 0"/><path d="m240 199.863281h16v16h-16zm0 0"/><path d="m208 199.863281h16v16h-16zm0 0"/><path d="m336 231.863281h16v16h-16zm0 0"/><path d="m304 231.863281h16v16h-16zm0 0"/><path d="m272 231.863281h16v16h-16zm0 0"/><path d="m240 231.863281h16v16h-16zm0 0"/><path d="m208 231.863281h16v16h-16zm0 0"/><path d="m176 199.863281h16v16h-16zm0 0"/><path d="m176 231.863281h16v16h-16zm0 0"/><path d="m336 295.863281h16v16h-16zm0 0"/><path d="m304 295.863281h16v16h-16zm0 0"/><path d="m272 295.863281h16v16h-16zm0 0"/><path d="m240 295.863281h16v16h-16zm0 0"/><path d="m208 295.863281h16v16h-16zm0 0"/><path d="m336 327.863281h16v16h-16zm0 0"/><path d="m304 327.863281h16v16h-16zm0 0"/><path d="m272 327.863281h16v16h-16zm0 0"/><path d="m240 327.863281h16v16h-16zm0 0"/><path d="m208 327.863281h16v16h-16zm0 0"/><path d="m176 295.863281h16v16h-16zm0 0"/><path d="m176 327.863281h16v16h-16zm0 0"/><path d="m336 391.863281h16v16h-16zm0 0"/><path d="m304 391.863281h16v16h-16zm0 0"/><path d="m272 391.863281h16v16h-16zm0 0"/><path d="m240 391.863281h16v16h-16zm0 0"/><path d="m208 391.863281h16v16h-16zm0 0"/><path d="m336 423.863281h16v16h-16zm0 0"/><path d="m304 423.863281h16v16h-16zm0 0"/><path d="m272 423.863281h16v16h-16zm0 0"/><path d="m240 423.863281h16v16h-16zm0 0"/><path d="m208 423.863281h16v16h-16zm0 0"/><path d="m176 391.863281h16v16h-16zm0 0"/><path d="m176 423.863281h16v16h-16zm0 0"/></g></svg>