<svg id="color" enable-background="new 0 0 24 24" height="512" viewBox="0 0 24 24" width="512" xmlns="http://www.w3.org/2000/svg"><path d="m18.671 4.93c-1.308-2.401-3.879-3.93-6.671-3.93-3.545 0-6.62 2.465-7.397 5.829-2.583.271-4.603 2.442-4.603 5.071 0 2.576 1.973 5.1 5.447 5.1-.289-.442-.447-.959-.447-1.5 0-1.403.768-1.906 2.556-3.694.79-.791 1.967-1.023 3-.595.705.292 1.233.856 1.5 1.54h4.194c1.517 0 2.75 1.233 2.75 2.75 0 .536-.16 1.033-.427 1.457 3.05-.348 5.427-2.917 5.427-6.028 0-3.067-2.307-5.623-5.329-6z" fill="#2196f3"/><path d="m12 1c-3.545 0-6.62 2.465-7.397 5.829-2.583.271-4.603 2.442-4.603 5.071 0 2.576 1.973 5.1 5.447 5.1-.289-.442-.447-.959-.447-1.5 0-1.403.768-1.906 2.556-3.694.527-.528 1.227-.807 1.941-.807.356 0 .715.069 1.059.212.659.273 1.164.784 1.444 1.407z" fill="#1d83d4"/><path d="m16.25 14.75h-6v-1c0-.665-.809-1.002-1.28-.53l-1.75 1.75c-.293.293-.293.768 0 1.061l1.75 1.75c.469.469 1.28.141 1.28-.53v-1h6c.414 0 .75-.336.75-.75 0-.415-.336-.751-.75-.751z" fill="#607d8b"/><path d="m17 15.5h-10c0 .192.073.384.22.53l1.75 1.75c.152.152.34.22.525.22.385 0 .756-.297.756-.751v-1h6c.413.001.749-.335.749-.749z" fill="#546d79"/><path d="m16.78 19.97-1.75-1.75c-.475-.474-1.28-.132-1.28.53v1h-6c-.414 0-.75.336-.75.75s.336.75.75.75h6v1c0 .669.811 1 1.28.53l1.75-1.75c.293-.293.293-.767 0-1.06z" fill="#607d8b"/><path d="m17 20.5h-10c0 .414.336.75.75.75h6v1c0 .453.371.75.757.75.184 0 .372-.068.524-.22l1.75-1.75c.146-.146.219-.338.219-.53z" fill="#546d79"/></svg>