<svg id="Layer_1" height="512" viewBox="0 0 512 512" width="512" xmlns="http://www.w3.org/2000/svg" data-name="Layer 1"><path d="m345.493 487.167h-51.56v-12h51.56a40.922 40.922 0 0 0 40.876-40.876v-55.119h12v55.119a52.936 52.936 0 0 1 -52.876 52.876z" fill="#b0b5ca"/><path d="m294.65 467.33v27.67h-32.28a13.828 13.828 0 0 1 -13.83-13.83v-.02a13.823 13.823 0 0 1 13.82-13.82z" fill="#e87187"/><path d="m371.422 187.819c0-19.207-23.385-57.289-67.135-32.394-24.23 13.791-53.071 30.466-100.506 8.823l-.245.088c-21.492 28.7-48.536 28.094-65.536 23.382v46.972l1.1 114.156a117.822 117.822 0 0 0 233.659 1.188l1.641-115.465a328.393 328.393 0 0 1 -2.978-46.75z" fill="#ffd8b7"/><path d="m169.1 348.846-1.1-114.156v-45.89a62.039 62.039 0 0 1 -30-1.082v46.972l1.1 114.156a117.816 117.816 0 0 0 131.872 102.219 117.786 117.786 0 0 1 -101.872-102.219z" fill="#ddb99e"/><path d="m204.13 165.16-.03.08c-21.35 28.51-47.75 27.9-64.89 23.22v46.66h-19.57c-.96 0-1.91.03-2.85.08-7.76-21.3-14.6-45.84-14.6-66.21 0-20.21 6.73-36.3 25.98-41.04a91.349 91.349 0 0 1 90.29-43.6l4.2.55a48.085 48.085 0 0 1 49.46-2.71l5.14 2.71a48.553 48.553 0 0 1 61.1 8.34l16.59 17.91 3.75.61a36.065 36.065 0 0 1 27.75 48.74l11.14.65c6.66.39 10.42 3.63 12.91 8.62a25.732 25.732 0 0 1 2.43 14.15l-1.67 16.4a75.47 75.47 0 0 1 -9.9 30.56c-.9 1.55-1.85 3.1-2.82 4.63v.01a46.714 46.714 0 0 0 -6.18-.4h-18.74a329.706 329.706 0 0 1 -2.96-46.5c0-19.08-23.23-56.94-66.69-32.21-24.07 13.7-52.72 30.25-99.84 8.75z" fill="#6d7486"/><path d="m132.085 168.99c0-20.21 6.782-36.3 26.032-41.04a91.407 91.407 0 0 1 63.554-43.176l-3.224-.424a91.34 91.34 0 0 0 -90.284 43.6c-19.25 4.74-25.976 20.83-25.976 41.04 0 20.37 6.841 44.85 14.6 66.15.94-.05 1.892-.14 2.852-.14h19.361v-23.154c-4-14.692-6.915-29.646-6.915-42.856z" fill="#565b68"/><g fill="#c1a08a"><path d="m330 290.865a6 6 0 0 1 -6-6 14.16 14.16 0 1 0 -28.32 0 6 6 0 0 1 -12 0 26.16 26.16 0 1 1 52.32 0 6 6 0 0 1 -6 6z"/><path d="m222.476 290.865a6 6 0 0 1 -6-6 14.161 14.161 0 0 0 -28.321 0 6 6 0 0 1 -12 0 26.161 26.161 0 0 1 52.321 0 6 6 0 0 1 -6 6z"/><path d="m256.075 380.284a53.357 53.357 0 0 1 -37.85-15.653 6 6 0 0 1 8.484-8.485 41.58 41.58 0 0 0 58.733 0 6 6 0 1 1 8.485 8.485 53.373 53.373 0 0 1 -37.852 15.653z"/></g><path d="m422.425 246.588h-12v-65.163c0-85.15-69.275-154.425-154.425-154.425s-154.425 69.275-154.425 154.425v65.163h-12v-65.163c0-91.767 74.658-166.425 166.425-166.425s166.425 74.658 166.425 166.425z" fill="#4a5160"/><path d="m416.185 241.57a47.171 47.171 0 0 0 -17.768-6.11 44.841 44.841 0 0 0 -6.057-.46h-20.36v146h20.37c26.58 0 47.63-21.84 47.63-48.42v-49.33a47.887 47.887 0 0 0 -23.815-41.68z" fill="#5fa8ed"/><path d="m116.737 235.14a46.77 46.77 0 0 0 -20.948 6.39 47.914 47.914 0 0 0 -23.789 41.71v49.34c0 26.58 21.06 48.42 47.64 48.42h20.36v-146h-20.465c-.96 0-1.858.09-2.798.14z" fill="#5fa8ed"/><path d="m116.084 267.833a6 6 0 0 1 -6-6v-4.3a6 6 0 0 1 12 0v4.3a6 6 0 0 1 -6 6z" fill="#f4f8fc"/><path d="m116.084 344.833a6 6 0 0 1 -6-6v-56a6 6 0 0 1 12 0v56a6 6 0 0 1 -6 6z" fill="#f4f8fc"/></svg>